<svg width="93" height="93" viewBox="0 0 93 93" fill="none" xmlns="http://www.w3.org/2000/svg">
<path d="M77.5 69.75H73.625V65.875C73.625 64.8473 73.2167 63.8617 72.49 63.135C71.7633 62.4083 70.7777 62 69.75 62C68.7223 62 67.7367 62.4083 67.01 63.135C66.2833 63.8617 65.875 64.8473 65.875 65.875V69.75H62C60.9723 69.75 59.9867 70.1583 59.26 70.885C58.5333 71.6117 58.125 72.5973 58.125 73.625C58.125 74.6527 58.5333 75.6383 59.26 76.365C59.9867 77.0917 60.9723 77.5 62 77.5H65.875V81.375C65.875 82.4027 66.2833 83.3883 67.01 84.115C67.7367 84.8417 68.7223 85.25 69.75 85.25C70.7777 85.25 71.7633 84.8417 72.49 84.115C73.2167 83.3883 73.625 82.4027 73.625 81.375V77.5H77.5C78.5277 77.5 79.5133 77.0917 80.24 76.365C80.9667 75.6383 81.375 74.6527 81.375 73.625C81.375 72.5973 80.9667 71.6117 80.24 70.885C79.5133 70.1583 78.5277 69.75 77.5 69.75ZM50.375 77.5H23.25C22.2223 77.5 21.2367 77.0917 20.51 76.365C19.7833 75.6383 19.375 74.6527 19.375 73.625V19.375C19.375 18.3473 19.7833 17.3617 20.51 16.635C21.2367 15.9083 22.2223 15.5 23.25 15.5H42.625V27.125C42.625 30.2081 43.8498 33.165 46.0299 35.3451C48.21 37.5252 51.1669 38.75 54.25 38.75H65.875V50.375C65.875 51.4027 66.2833 52.3883 67.01 53.115C67.7367 53.8417 68.7223 54.25 69.75 54.25C70.7777 54.25 71.7633 53.8417 72.49 53.115C73.2167 52.3883 73.625 51.4027 73.625 50.375V34.875C73.625 34.875 73.625 34.875 73.625 34.6425C73.5846 34.2865 73.5067 33.9358 73.3925 33.5963V33.2475C73.2062 32.8491 72.9577 32.4828 72.6562 32.1625L49.4062 8.9125C49.0859 8.61109 48.7197 8.36256 48.3213 8.17625C48.1931 8.15381 48.0619 8.15381 47.9338 8.17625C47.557 7.97476 47.152 7.83107 46.7325 7.75H23.25C20.1669 7.75 17.21 8.97477 15.0299 11.1549C12.8498 13.335 11.625 16.2919 11.625 19.375V73.625C11.625 76.7081 12.8498 79.665 15.0299 81.8451C17.21 84.0252 20.1669 85.25 23.25 85.25H50.375C51.4027 85.25 52.3883 84.8417 53.115 84.115C53.8417 83.3883 54.25 82.4027 54.25 81.375C54.25 80.3473 53.8417 79.3617 53.115 78.635C52.3883 77.9083 51.4027 77.5 50.375 77.5ZM50.375 20.9637L60.4113 31H54.25C53.2223 31 52.2367 30.5917 51.51 29.865C50.7833 29.1383 50.375 28.1527 50.375 27.125V20.9637ZM31 31C29.9723 31 28.9867 31.4083 28.26 32.135C27.5333 32.8617 27.125 33.8473 27.125 34.875C27.125 35.9027 27.5333 36.8883 28.26 37.615C28.9867 38.3417 29.9723 38.75 31 38.75H34.875C35.9027 38.75 36.8883 38.3417 37.615 37.615C38.3417 36.8883 38.75 35.9027 38.75 34.875C38.75 33.8473 38.3417 32.8617 37.615 32.135C36.8883 31.4083 35.9027 31 34.875 31H31ZM50.375 62H31C29.9723 62 28.9867 62.4083 28.26 63.135C27.5333 63.8617 27.125 64.8473 27.125 65.875C27.125 66.9027 27.5333 67.8883 28.26 68.615C28.9867 69.3417 29.9723 69.75 31 69.75H50.375C51.4027 69.75 52.3883 69.3417 53.115 68.615C53.8417 67.8883 54.25 66.9027 54.25 65.875C54.25 64.8473 53.8417 63.8617 53.115 63.135C52.3883 62.4083 51.4027 62 50.375 62ZM54.25 46.5H31C29.9723 46.5 28.9867 46.9083 28.26 47.635C27.5333 48.3617 27.125 49.3473 27.125 50.375C27.125 51.4027 27.5333 52.3883 28.26 53.115C28.9867 53.8417 29.9723 54.25 31 54.25H54.25C55.2777 54.25 56.2633 53.8417 56.99 53.115C57.7167 52.3883 58.125 51.4027 58.125 50.375C58.125 49.3473 57.7167 48.3617 56.99 47.635C56.2633 46.9083 55.2777 46.5 54.25 46.5Z" fill="#000235"/>
</svg>
