<svg width="93" height="93" viewBox="0 0 93 93" fill="none" xmlns="http://www.w3.org/2000/svg">
<path d="M54.25 42.625H38.75C36.6946 42.625 34.7233 41.8085 33.2699 40.3551C31.8165 38.9017 31 36.9304 31 34.875C31 32.8196 31.8165 30.8483 33.2699 29.3949C34.7233 27.9415 36.6946 27.125 38.75 27.125H58.125C59.1527 27.125 60.1383 27.5333 60.865 28.26C61.5917 28.9867 62 29.9723 62 31C62 32.0277 62.4083 33.0133 63.135 33.74C63.8617 34.4667 64.8473 34.875 65.875 34.875C66.9027 34.875 67.8883 34.4667 68.615 33.74C69.3417 33.0133 69.75 32.0277 69.75 31C69.75 27.9169 68.5252 24.96 66.3451 22.7799C64.165 20.5998 61.2081 19.375 58.125 19.375H50.375V11.625C50.375 10.5973 49.9667 9.61166 49.24 8.88496C48.5133 8.15826 47.5277 7.75 46.5 7.75C45.4723 7.75 44.4867 8.15826 43.76 8.88496C43.0333 9.61166 42.625 10.5973 42.625 11.625V19.375H38.75C34.6391 19.375 30.6967 21.008 27.7898 23.9148C24.883 26.8217 23.25 30.7641 23.25 34.875C23.25 38.9859 24.883 42.9283 27.7898 45.8352C30.6967 48.742 34.6391 50.375 38.75 50.375H54.25C56.3054 50.375 58.2767 51.1915 59.7301 52.6449C61.1835 54.0983 62 56.0696 62 58.125C62 60.1804 61.1835 62.1517 59.7301 63.6051C58.2767 65.0585 56.3054 65.875 54.25 65.875H34.875C33.8473 65.875 32.8617 65.4667 32.135 64.74C31.4083 64.0133 31 63.0277 31 62C31 60.9723 30.5917 59.9867 29.865 59.26C29.1383 58.5333 28.1527 58.125 27.125 58.125C26.0973 58.125 25.1117 58.5333 24.385 59.26C23.6583 59.9867 23.25 60.9723 23.25 62C23.25 65.0831 24.4748 68.04 26.6549 70.2201C28.835 72.4002 31.7919 73.625 34.875 73.625H42.625V81.375C42.625 82.4027 43.0333 83.3883 43.76 84.115C44.4867 84.8417 45.4723 85.25 46.5 85.25C47.5277 85.25 48.5133 84.8417 49.24 84.115C49.9667 83.3883 50.375 82.4027 50.375 81.375V73.625H54.25C58.3609 73.625 62.3033 71.992 65.2102 69.0852C68.117 66.1783 69.75 62.2359 69.75 58.125C69.75 54.0141 68.117 50.0717 65.2102 47.1648C62.3033 44.258 58.3609 42.625 54.25 42.625Z" fill="#000235"/>
</svg>
