<svg width="93" height="93" viewBox="0 0 93 93" fill="none" xmlns="http://www.w3.org/2000/svg">
<path d="M79.05 46.5001H46.5V13.9501C46.5 11.1601 44.64 9.30012 41.85 9.30012C18.6 9.30012 0 27.9001 0 51.1501C0 74.4001 18.6 93.0001 41.85 93.0001C65.1 93.0001 83.7 74.4001 83.7 51.1501C83.7 48.3601 81.84 46.5001 79.05 46.5001ZM46.5 83.2351C28.83 86.0251 12.09 73.4701 9.765 55.8001C6.975 38.1301 19.53 21.3901 37.2 19.0651V51.1501C37.2 53.9401 39.06 55.8001 41.85 55.8001H73.935C72.075 70.2151 60.915 81.3751 46.5 83.2351ZM60.45 0.00012207C57.66 0.00012207 55.8 1.86012 55.8 4.65012V32.5501C55.8 35.3401 57.66 37.2001 60.45 37.2001H88.35C91.14 37.2001 93 35.3401 93 32.5501C93 14.4151 78.585 0.00012207 60.45 0.00012207ZM65.1 27.9001V9.76512C74.4 11.6251 81.375 18.6001 83.235 27.9001H65.1Z" fill="#000235"/>
</svg>
