<svg width="93" height="93" viewBox="0 0 93 93" fill="none" xmlns="http://www.w3.org/2000/svg">
<path d="M81.375 54.25C80.3473 54.25 79.3617 54.6583 78.635 55.385C77.9083 56.1117 77.5 57.0973 77.5 58.125V73.625C77.5 74.6527 77.0917 75.6383 76.365 76.365C75.6383 77.0917 74.6527 77.5 73.625 77.5H19.375C18.3473 77.5 17.3617 77.0917 16.635 76.365C15.9083 75.6383 15.5 74.6527 15.5 73.625V58.125C15.5 57.0973 15.0917 56.1117 14.365 55.385C13.6383 54.6583 12.6527 54.25 11.625 54.25C10.5973 54.25 9.61166 54.6583 8.88496 55.385C8.15826 56.1117 7.75 57.0973 7.75 58.125V73.625C7.75 76.7081 8.97477 79.665 11.1549 81.8451C13.335 84.0252 16.2919 85.25 19.375 85.25H73.625C76.7081 85.25 79.665 84.0252 81.8451 81.8451C84.0252 79.665 85.25 76.7081 85.25 73.625V58.125C85.25 57.0973 84.8417 56.1117 84.115 55.385C83.3883 54.6583 82.4027 54.25 81.375 54.25ZM43.7487 60.8763C44.1173 61.229 44.5518 61.5056 45.0275 61.69C45.4913 61.895 45.9929 62.0009 46.5 62.0009C47.0071 62.0009 47.5087 61.895 47.9725 61.69C48.4482 61.5056 48.8827 61.229 49.2513 60.8763L64.7512 45.3763C65.4809 44.6466 65.8909 43.6569 65.8909 42.625C65.8909 41.5931 65.4809 40.6034 64.7512 39.8737C64.0216 39.1441 63.0319 38.7341 62 38.7341C60.9681 38.7341 59.9784 39.1441 59.2487 39.8737L50.375 48.7863V11.625C50.375 10.5973 49.9667 9.61166 49.24 8.88496C48.5133 8.15826 47.5277 7.75 46.5 7.75C45.4723 7.75 44.4867 8.15826 43.76 8.88496C43.0333 9.61166 42.625 10.5973 42.625 11.625V48.7863L33.7512 39.8737C33.39 39.5125 32.961 39.2259 32.489 39.0303C32.0169 38.8348 31.511 38.7341 31 38.7341C30.489 38.7341 29.9831 38.8348 29.511 39.0303C29.039 39.2259 28.61 39.5125 28.2488 39.8737C27.8875 40.2351 27.6009 40.664 27.4053 41.136C27.2098 41.6081 27.1091 42.114 27.1091 42.625C27.1091 43.136 27.2098 43.6419 27.4053 44.114C27.6009 44.586 27.8875 45.0149 28.2488 45.3763L43.7487 60.8763Z" fill="#000235"/>
</svg>
