<svg width="28" height="28" viewBox="0 0 28 28" fill="none" xmlns="http://www.w3.org/2000/svg">
<path d="M20.9066 7.72346C20.7882 7.43838 20.5617 7.21184 20.2766 7.09346C20.1363 7.03367 19.9857 7.00197 19.8333 7.00012H8.1666C7.85718 7.00012 7.56043 7.12304 7.34164 7.34183C7.12285 7.56062 6.99993 7.85737 6.99993 8.16679C6.99993 8.47621 7.12285 8.77295 7.34164 8.99175C7.56043 9.21054 7.85718 9.33346 8.1666 9.33346H17.0216L7.33826 19.0051C7.22891 19.1136 7.14212 19.2426 7.08289 19.3848C7.02366 19.527 6.99316 19.6794 6.99316 19.8335C6.99316 19.9875 7.02366 20.14 7.08289 20.2821C7.14212 20.4243 7.22891 20.5533 7.33826 20.6618C7.44672 20.7711 7.57575 20.8579 7.71792 20.9172C7.86009 20.9764 8.01258 21.0069 8.1666 21.0069C8.32061 21.0069 8.4731 20.9764 8.61527 20.9172C8.75744 20.8579 8.88647 20.7711 8.99493 20.6618L18.6666 10.9785V19.8335C18.6666 20.1429 18.7895 20.4396 19.0083 20.6584C19.2271 20.8772 19.5238 21.0001 19.8333 21.0001C20.1427 21.0001 20.4394 20.8772 20.6582 20.6584C20.877 20.4396 20.9999 20.1429 20.9999 19.8335V8.16679C20.9981 8.01433 20.9664 7.86371 20.9066 7.72346Z" fill="#000235"/>
</svg>
