<svg width="152" height="151" viewBox="0 0 152 151" fill="none" xmlns="http://www.w3.org/2000/svg">
<path d="M73.5308 45.0629C72.9093 46.0841 72.2836 47.1023 71.6302 48.1065C71.2902 48.6424 70.9423 49.1771 70.6391 49.7328C69.0238 52.7003 67.4427 55.6878 65.7558 58.6186C64.7088 60.4183 63.6434 62.2077 62.5594 63.9869L60.9254 66.6507L59.2622 69.297C58.9118 69.8242 58.5201 70.3238 58.0911 70.7909C57.9238 70.9897 57.7124 71.1474 57.4742 71.2509C57.2361 71.3544 56.978 71.4007 56.7214 71.3861C56.0093 71.3611 55.6308 70.7238 55.9395 69.929C56.1529 69.4166 56.4293 68.9311 56.7622 68.4838C57.5012 67.4509 58.1937 66.392 58.8399 65.307C59.49 64.2242 60.0961 63.1163 60.6582 61.9833C60.9691 61.3582 61.2576 60.6878 61.6838 60.1519C63.0434 58.4385 64.013 56.4825 65.2239 54.6774C66.123 53.3352 66.9229 51.9264 67.7828 50.5572L70.0798 46.8924C70.8384 45.6669 71.6281 44.4581 72.3909 43.234C72.7015 42.7652 73.0422 42.3164 73.4108 41.8905C73.7693 41.4962 74.149 41.1214 74.5482 40.7677C74.9005 40.4541 75.153 40.6227 75.0321 41.1424C74.857 41.8876 74.63 42.6211 74.3529 43.3376C74.2395 43.6319 74.1085 43.9215 73.9655 44.2058C73.8113 44.4841 73.6565 44.7634 73.5026 45.0409L73.5308 45.0629Z" fill="black"/>
<path d="M97.2682 69.1574L95.9717 69.9772L94.6543 70.7671C94.1891 71.0476 93.7215 71.3293 93.2814 71.6472C92.6933 72.0698 92.1103 72.4996 91.529 72.9315L89.7786 74.2169L86.2846 76.7941L81.9751 79.9568L77.682 83.143C77.2385 83.4541 76.7739 83.7337 76.2919 83.9796C76.0983 84.0885 75.8829 84.1514 75.663 84.1635C75.443 84.1756 75.2247 84.1365 75.0253 84.0493C74.4695 83.8206 74.3658 83.1988 74.8543 82.6424C75.1795 82.2875 75.5482 81.9745 75.9514 81.7111C77.7592 80.4797 79.4898 79.138 81.1329 77.694C81.565 77.2666 82.0433 76.8884 82.5587 76.5665C84.212 75.6574 85.654 74.435 87.2447 73.4361C88.4266 72.6951 89.5594 71.8703 90.7395 71.1228C92.849 69.7976 94.9694 68.4935 97.1353 67.2654C97.9527 66.7906 98.8401 66.4513 99.7614 66.2614C100.16 66.1784 100.301 66.4514 99.9942 66.7939C99.5511 67.2812 99.0772 67.74 98.5755 68.1673C98.1543 68.5129 97.7135 68.8339 97.2554 69.1286L97.2682 69.1574Z" fill="black"/>
<path d="M102.66 100.714C101.783 100.706 100.906 100.695 100.028 100.679C99.5635 100.65 99.0965 100.65 98.63 100.676C97.389 100.774 96.149 100.899 94.9098 101.025C93.6706 101.148 92.4319 101.264 91.1929 101.36C89.6671 101.481 88.1411 101.587 86.6152 101.696L82.0365 101.997C81.5673 102.009 81.0998 101.965 80.6443 101.865C80.2027 101.785 79.8987 101.412 79.6942 100.909C79.3962 100.177 79.6076 99.3512 80.22 99.1112C80.6151 98.9703 81.0331 98.9117 81.4477 98.9392C83.3262 98.998 85.2109 98.8366 87.0629 98.4582C87.5769 98.3551 88.1111 98.2061 88.6176 98.2852C90.2339 98.531 91.844 98.2466 93.456 98.3145C94.6531 98.3608 95.8543 98.2951 97.0527 98.3187C98.1212 98.3397 99.189 98.3688 100.256 98.4063L103.455 98.5839C104.29 98.6257 105.098 98.8654 105.811 99.283C105.886 99.3208 105.947 99.3802 105.986 99.4536C106.026 99.527 106.042 99.6111 106.033 99.695C106.024 99.779 105.99 99.8589 105.935 99.9247C105.881 99.9904 105.808 100.039 105.726 100.064C105.182 100.261 104.626 100.426 104.063 100.558C103.6 100.631 103.132 100.67 102.664 100.675L102.66 100.714Z" fill="black"/>
</svg>
